<svg xmlns="http://www.w3.org/2000/svg" width="16.59mm" height="16.59mm" viewBox="0 0 47.02 47.02"><title>logo</title><path d="M122.83,136a11.41,11.41,0,1,1-11.44,11.43A11.39,11.39,0,0,1,122.83,136ZM119.9,147.4h0c0,2.13,0,4.25,0,6.37a2.81,2.81,0,0,0,2.83,2.78c1.88,0,3.09-1.22,3.11-3.28,0-2.57,0-5.15,0-7.72,0-1.38,0-2.75,0-4.13a2.94,2.94,0,0,0-3.12-3.08,2.85,2.85,0,0,0-2.83,3.13C119.89,143.45,119.9,145.43,119.9,147.4Z" transform="translate(-99.52 -129.29)"/><path d="M133.24,171.55a.82.82,0,0,1-1.56-.37v0a8.81,8.81,0,0,0-.29-2.55,2.72,2.72,0,0,0-2.63-2c-3.54,0-7.07,0-10.6,0a6.07,6.07,0,0,1-5.87-6,.09.09,0,0,1,.09-.09c.25,0,.5,0,.76,0,5,0,10,0,15,0a8,8,0,0,1,2.39.31,5,5,0,0,1,3.67,4.32A10.82,10.82,0,0,1,133.24,171.55Z" transform="translate(-99.52 -129.29)"/><path d="M134.34,138.7a2.65,2.65,0,1,1,1-5.07,2.59,2.59,0,0,1,1.06.85A2.63,2.63,0,0,1,134.34,138.7Z" transform="translate(-99.52 -129.29)" fill="#e85130"/><rect x="0.46" y="0.46" width="46.1" height="46.1" rx="9.96" fill="none" stroke="#231f20" stroke-miterlimit="10" stroke-width="0.92"/></svg>